<mxfile host="app.diagrams.net" modified="2024-04-03T05:48:11.263Z" agent="Mozilla/5.0 (Macintosh; Intel Mac OS X 10.15; rv:124.0) Gecko/20100101 Firefox/124.0" etag="BW6LIc-uSICKa_JDzMQk" version="24.2.1" type="github">
  <diagram name="Page-1" id="3dxey2eKk7pLNxcLVF9-">
    <mxGraphModel dx="984" dy="661" grid="1" gridSize="10" guides="1" tooltips="1" connect="1" arrows="1" fold="1" page="1" pageScale="1" pageWidth="850" pageHeight="1100" math="0" shadow="0">
      <root>
        <mxCell id="0" />
        <mxCell id="1" parent="0" />
        <mxCell id="PMs9SG9FcJHBpyK6Xc83-1" value="AWS Account" style="points=[[0,0],[0.25,0],[0.5,0],[0.75,0],[1,0],[1,0.25],[1,0.5],[1,0.75],[1,1],[0.75,1],[0.5,1],[0.25,1],[0,1],[0,0.75],[0,0.5],[0,0.25]];outlineConnect=0;gradientColor=none;html=1;whiteSpace=wrap;fontSize=12;fontStyle=0;container=1;pointerEvents=0;collapsible=0;recursiveResize=0;shape=mxgraph.aws4.group;grIcon=mxgraph.aws4.group_account;strokeColor=#CD2264;fillColor=none;verticalAlign=top;align=left;spacingLeft=30;fontColor=#CD2264;dashed=0;" vertex="1" parent="1">
          <mxGeometry x="200" y="70" width="530" height="380" as="geometry" />
        </mxCell>
        <mxCell id="PMs9SG9FcJHBpyK6Xc83-4" value="" style="group" vertex="1" connectable="0" parent="PMs9SG9FcJHBpyK6Xc83-1">
          <mxGeometry x="85" y="140" width="78" height="115" as="geometry" />
        </mxCell>
        <mxCell id="PMs9SG9FcJHBpyK6Xc83-2" value="" style="sketch=0;points=[[0,0,0],[0.25,0,0],[0.5,0,0],[0.75,0,0],[1,0,0],[0,1,0],[0.25,1,0],[0.5,1,0],[0.75,1,0],[1,1,0],[0,0.25,0],[0,0.5,0],[0,0.75,0],[1,0.25,0],[1,0.5,0],[1,0.75,0]];outlineConnect=0;fontColor=#232F3E;fillColor=#01A88D;strokeColor=#ffffff;dashed=0;verticalLabelPosition=bottom;verticalAlign=top;align=center;html=1;fontSize=12;fontStyle=0;aspect=fixed;shape=mxgraph.aws4.resourceIcon;resIcon=mxgraph.aws4.transfer_family;" vertex="1" parent="PMs9SG9FcJHBpyK6Xc83-4">
          <mxGeometry width="78" height="78" as="geometry" />
        </mxCell>
        <mxCell id="PMs9SG9FcJHBpyK6Xc83-3" value="&lt;div&gt;&lt;br&gt;&lt;/div&gt;&lt;div&gt;&lt;br&gt;&lt;/div&gt;&lt;div&gt;AWS Transfer Family&lt;/div&gt;(FTP)" style="text;html=1;align=center;verticalAlign=middle;whiteSpace=wrap;rounded=0;" vertex="1" parent="PMs9SG9FcJHBpyK6Xc83-4">
          <mxGeometry x="9" y="85" width="60" height="29" as="geometry" />
        </mxCell>
        <mxCell id="PMs9SG9FcJHBpyK6Xc83-5" value="Amazon S3" style="sketch=0;outlineConnect=0;fontColor=#232F3E;gradientColor=none;strokeColor=#ffffff;fillColor=#232F3E;dashed=0;verticalLabelPosition=middle;verticalAlign=bottom;align=center;html=1;whiteSpace=wrap;fontSize=10;fontStyle=1;spacing=3;shape=mxgraph.aws4.productIcon;prIcon=mxgraph.aws4.s3;" vertex="1" parent="PMs9SG9FcJHBpyK6Xc83-1">
          <mxGeometry x="400" y="140" width="80" height="100" as="geometry" />
        </mxCell>
        <mxCell id="PMs9SG9FcJHBpyK6Xc83-13" value="" style="outlineConnect=0;dashed=0;verticalLabelPosition=bottom;verticalAlign=top;align=center;html=1;shape=mxgraph.aws3.iam;fillColor=#759C3E;gradientColor=none;" vertex="1" parent="PMs9SG9FcJHBpyK6Xc83-1">
          <mxGeometry x="260" y="140" width="42" height="81" as="geometry" />
        </mxCell>
        <mxCell id="PMs9SG9FcJHBpyK6Xc83-14" value="" style="endArrow=classic;startArrow=classic;html=1;rounded=0;" edge="1" parent="PMs9SG9FcJHBpyK6Xc83-1">
          <mxGeometry width="50" height="50" relative="1" as="geometry">
            <mxPoint x="310" y="181" as="sourcePoint" />
            <mxPoint x="390" y="181" as="targetPoint" />
          </mxGeometry>
        </mxCell>
        <mxCell id="PMs9SG9FcJHBpyK6Xc83-15" value="" style="endArrow=classic;startArrow=classic;html=1;rounded=0;" edge="1" parent="PMs9SG9FcJHBpyK6Xc83-1">
          <mxGeometry width="50" height="50" relative="1" as="geometry">
            <mxPoint x="173" y="180" as="sourcePoint" />
            <mxPoint x="253" y="180.3960396039604" as="targetPoint" />
          </mxGeometry>
        </mxCell>
        <mxCell id="PMs9SG9FcJHBpyK6Xc83-18" value="IAM" style="text;html=1;align=center;verticalAlign=middle;whiteSpace=wrap;rounded=0;" vertex="1" parent="PMs9SG9FcJHBpyK6Xc83-1">
          <mxGeometry x="251" y="225" width="60" height="30" as="geometry" />
        </mxCell>
        <mxCell id="PMs9SG9FcJHBpyK6Xc83-12" value="" style="group" vertex="1" connectable="0" parent="1">
          <mxGeometry x="65" y="220" width="60" height="100" as="geometry" />
        </mxCell>
        <mxCell id="PMs9SG9FcJHBpyK6Xc83-6" value="" style="shape=actor;whiteSpace=wrap;html=1;" vertex="1" parent="PMs9SG9FcJHBpyK6Xc83-12">
          <mxGeometry x="10" width="40" height="60" as="geometry" />
        </mxCell>
        <mxCell id="PMs9SG9FcJHBpyK6Xc83-11" value="User" style="text;html=1;align=center;verticalAlign=middle;whiteSpace=wrap;rounded=0;" vertex="1" parent="PMs9SG9FcJHBpyK6Xc83-12">
          <mxGeometry y="70" width="60" height="30" as="geometry" />
        </mxCell>
        <mxCell id="PMs9SG9FcJHBpyK6Xc83-17" value="" style="endArrow=classic;startArrow=classic;html=1;rounded=0;" edge="1" parent="1">
          <mxGeometry width="50" height="50" relative="1" as="geometry">
            <mxPoint x="140" y="250" as="sourcePoint" />
            <mxPoint x="270" y="250" as="targetPoint" />
          </mxGeometry>
        </mxCell>
      </root>
    </mxGraphModel>
  </diagram>
</mxfile>
